<svg height="100%" width="100%" id="bg-svg" viewBox="0 0 1440 400"
    xmlns="http://www.w3.org/2000/svg" class="transition duration-300 ease-in-out delay-150">
    <path d="M 0,400 C 0,400 0,133 0,133 C 56.000687049124025,143.20267949158364 112.00137409824805,153.4053589831673 190,148 C 267.99862590175195,142.5946410168327 367.9951906561319,121.58124355891445 429,110 C 490.0048093438681,98.41875644108555 512.0178632772244,96.26966678117485 580,97 C 647.9821367227756,97.73033321882515 761.9333562349707,101.34008931638611 851,96 C 940.0666437650293,90.65991068361389 1004.2487117828923,76.36997595328066 1064,87 C 1123.7512882171077,97.63002404671934 1179.0717966334594,133.18000687049124 1241,145 C 1302.9282033665406,156.81999312950876 1371.4641016832702,144.90999656475438 1440,133 C 1440,133 1440,400 1440,400 Z" stroke="none" stroke-width="0" fill="#01484188" class="transition-all duration-300 ease-in-out delay-150"></path>
    <path d="M 0,400 C 0,400 0,266 0,266 C 56.64513912744761,288.97835795259357 113.29027825489521,311.9567159051872 187,311 C 260.7097217451048,310.0432840948128 351.4840261078668,285.15149433184473 429,279 C 506.5159738921332,272.84850566815527 570.7736173136379,285.43730676743394 637,298 C 703.2263826863621,310.56269323256606 771.4215046375815,323.09927859841974 836,315 C 900.5784953624185,306.90072140158026 961.5403641360358,278.165578838887 1033,263 C 1104.4596358639642,247.83442116111303 1186.4170388182754,246.23840604603228 1256,249 C 1325.5829611817246,251.76159395396772 1382.7914805908622,258.88079697698385 1440,266 C 1440,266 1440,400 1440,400 Z" stroke="none" stroke-width="0" fill="#014841ff" class="transition-all duration-300 ease-in-out delay-150"></path>
</svg>