<svg xmlns="http://www.w3.org/2000/svg" viewBox="0 0 1440 320">
    <path fill="#014841" fill-opacity="1" d="M0,32L30,74.7C60,117,120,203,180,240C240,277,300,267,360,218.7C420,171,480,85,540,96C600,107,660,213,720,245.3C780,277,840,235,900,186.7C960,139,1020,85,1080,96C1140,107,1200,181,1260,186.7C1320,192,1380,128,1410,96L1440,64L1440,0L1410,0C1380,0,1320,0,1260,0C1200,0,1140,0,1080,0C1020,0,960,0,900,0C840,0,780,0,720,0C660,0,600,0,540,0C480,0,420,0,360,0C300,0,240,0,180,0C120,0,60,0,30,0L0,0Z"></path>
</svg>